<svg viewBox="0 0 16 16" xmlns="http://www.w3.org/2000/svg"><path d="m.66665883.68670993h14.66670927v14.26670857h-14.66670927z" fill="#2c0012"/><path d="m.66665883.68670993h14.66670927v14.26670857h-14.66670927zm-.66665883 14.93339427h16.0000269v-15.6000531h-16.0000269zm10.1200278-9.12005296c-.1000137-.04666048-.23335617-.06665782-.39336182-.06665782-.85999338 0-1.45999439.66001992-1.45999439 1.76000833 0 1.25332827.61333258 1.75998145 1.38003189 1.75998145.16664455 0 .33998175-.01999734.47332432-.07998938zm-.35336712-1.08665685c.14000829 0 .22002455 0 .35334022.01333157v-1.7733399c0-.04666047.0333289-.06665782.0666309-.06665782h1.080018c.0533262 0 .0666578.01999735.0666578.05332626v6.2333662c0 .1866419 0 .419998.0333289.6733246 0 .0466605-.0133316.0533263-.0599921.0800163-.5733378.2733239-1.1799777.3933349-1.74664984.3933349-1.47332596 0-2.52668077-.9133197-2.52668077-2.77334162-.0066389-1.59336378 1.04668903-2.83336049 2.73334689-2.83336049zm-3.9132978 5.42003331c0 .0666309-.01333157.0866552-.08668205.0866552h-1.0266648c-.06665782 0-.08668205-.033329-.08668205-.0866552v-7.16004429c0-.06665782.03332891-.08668205.08668205-.08668205h1.03333059c.05332625 0 .08001626.01999735.08001626.08001626z" fill="#ff408c"/></svg>